<?xml version="1.0" encoding="utf-8"?>
<!-- Generator: Adobe Illustrator 18.0.0, SVG Export Plug-In . SVG Version: 6.00 Build 0)  -->
<!DOCTYPE svg PUBLIC "-//W3C//DTD SVG 1.1//EN" "http://www.w3.org/Graphics/SVG/1.1/DTD/svg11.dtd">
<svg version="1.1" id="Layer_1" xmlns="http://www.w3.org/2000/svg" xmlns:xlink="http://www.w3.org/1999/xlink" x="0px" y="0px"
	 viewBox="0 0 32 32" enable-background="new 0 0 32 32" xml:space="preserve">
<path fill="#A5A498" d="M16,0C7.2,0,0,7.2,0,16s7.2,16,16,16s16-7.2,16-16S24.8,0,16,0z"/>
<path fill="#FFFFFF" d="M23.2,7.2c-1.5-1.3-3.8-1.8-7-1.8s-5.4,0.3-7,0.5v22.8h5.1v-8.3c0.5,0.1,1.2,0.1,1.8,0.1
	c3.1,0,5.8-0.8,7.6-2.4c1.4-1.3,2.2-3.2,2.2-5.5S24.7,8.3,23.2,7.2z M16,16.4c-0.8,0-1.3,0-1.8-0.1V9.5c0.4-0.1,1.2-0.1,2.2-0.1
	c2.7,0,4.1,1.3,4.1,3.5S18.8,16.4,16,16.4z"/>
</svg>
