<?xml version="1.0" encoding="utf-8"?>
<!-- Generator: Adobe Illustrator 18.0.0, SVG Export Plug-In . SVG Version: 6.00 Build 0)  -->
<!DOCTYPE svg PUBLIC "-//W3C//DTD SVG 1.1//EN" "http://www.w3.org/Graphics/SVG/1.1/DTD/svg11.dtd">
<svg version="1.1" id="Layer_1" xmlns="http://www.w3.org/2000/svg" xmlns:xlink="http://www.w3.org/1999/xlink" x="0px" y="0px"
	 viewBox="0 0 38 20" enable-background="new 0 0 38 20" xml:space="preserve">
<title>us-highway-duplex</title>
<path fill="#FFFFFF" d="M19,18.5c-0.2,0-0.3-0.1-0.4-0.2c-0.2-0.3-1-0.8-4.3-0.8c-0.6,0-1.2,0-1.7,0h-0.9h-0.3h-0.6
	c-3.6-0.1-7.5-0.5-8.8-1.8c-2.6-2.8-1.6-5.8-0.6-7.9S1.5,4.7,0.7,3.9C0.6,3.8,0.5,3.7,0.5,3.5c0-0.1,0.1-0.3,0.2-0.4l3-2.5
	c0.2-0.1,0.4-0.2,0.6,0c1.8,1.3,5.6,1.9,7.2,1.9s5.3-0.5,7.2-1.9c0.2-0.1,0.4-0.1,0.6,0C21.2,2,25,2.5,26.5,2.5s5.4-0.6,7.2-1.9
	c0.2-0.1,0.4-0.1,0.6,0l3,2.5c0.2,0.2,0.2,0.5,0,0.7c0,0,0,0,0,0c-0.8,0.8-1.9,1.9-0.9,3.9s2,5.1-0.6,7.9c-1.3,1.3-5.1,1.7-8.8,1.8
	h-0.6h-0.3h-0.9h-1.6c-3.3,0-4.2,0.5-4.4,0.8C19.3,18.4,19.2,18.5,19,18.5C19,18.5,19,18.5,19,18.5z"/>
<path fill="#B2B2B2" d="M34,1l3,2.5c-0.8,0.8-2.2,2.1-1,4.5s1.7,5-0.5,7.3c-1.4,1.5-7.6,1.6-9,1.7h-0.3c-0.5,0-1.5,0-2.5,0
	c-1.9,0-4.2,0.1-4.8,1c-0.6-0.9-2.8-1-4.7-1c-1.1,0-2,0-2.6,0h-0.2c-1.4-0.1-7.6-0.1-9-1.7C0.3,13,0.8,10.4,2,8S1.8,4.3,1,3.5L4,1
	c2,1.5,6,2,7.5,2S17,2.5,19,1c2,1.5,6,2,7.5,2S32,2.5,34,1 M34,0c-0.2,0-0.4,0.1-0.6,0.2C31.7,1.5,28,2,26.5,2s-5.2-0.5-6.9-1.8
	c-0.4-0.3-0.9-0.3-1.2,0C16.7,1.5,13.1,2,11.5,2S6.3,1.5,4.6,0.2c-0.4-0.3-0.9-0.3-1.2,0l-3,2.5c-0.4,0.3-0.5,1-0.2,1.4
	c0,0,0.1,0.1,0.1,0.1l0,0C1.1,5,2,5.8,1.1,7.6C0,9.8-1,13,1.8,16c1.4,1.5,5.2,1.8,9.1,2h0.6h0.3h0.9c0.5,0,1.1,0,1.7,0
	c3.4,0,3.8,0.6,3.8,0.6c0.2,0.3,0.5,0.4,0.8,0.4l0,0c0.3,0,0.6-0.2,0.8-0.4c0-0.1,0.5-0.6,4-0.6h1.6h0.9h0.3h0.6
	c3.9-0.1,7.7-0.5,9.1-2c2.8-3,1.7-6.3,0.7-8.5c-0.8-1.8,0-2.6,0.8-3.3l0,0c0.4-0.4,0.4-1,0-1.4c0,0-0.1-0.1-0.1-0.1l-3-2.5
	C34.5,0.1,34.2,0,34,0L34,0z"/>
<rect fill="none" width="38" height="20"/>
</svg>
