<?xml version="1.0" encoding="utf-8"?>
<!-- Generator: Adobe Illustrator 18.0.0, SVG Export Plug-In . SVG Version: 6.00 Build 0)  -->
<!DOCTYPE svg PUBLIC "-//W3C//DTD SVG 1.1//EN" "http://www.w3.org/Graphics/SVG/1.1/DTD/svg11.dtd">
<svg version="1.1" id="Layer_1" xmlns="http://www.w3.org/2000/svg" xmlns:xlink="http://www.w3.org/1999/xlink" x="0px" y="0px"
	 viewBox="0 0 20 20" enable-background="new 0 0 20 20" xml:space="preserve">
<title>us-highway</title>
<rect fill="none" width="20" height="20"/>
<path fill="#FFFFFF" d="M10,18.5c-0.1,0-0.3-0.1-0.4-0.2c-0.7-0.6-1.7-0.9-2.6-0.8c-1.8,0.1-3.6-0.6-4.8-1.8
	c-2.6-2.8-1.6-5.8-0.6-7.9S1.5,4.7,0.7,3.9C0.6,3.8,0.5,3.6,0.5,3.5c0-0.1,0.1-0.3,0.2-0.4l3-2.5C3.8,0.5,3.9,0.5,4,0.5h0.1
	c0.1,0,0.3,0.1,0.3,0.2C5,1.5,6,2,7,2c1-0.1,2-0.5,2.6-1.3c0.2-0.2,0.5-0.2,0.7-0.1c0,0,0,0,0.1,0.1C11,1.5,12,2,13,2
	c1,0,2-0.5,2.6-1.3c0.2-0.2,0.5-0.2,0.7-0.1l3,2.5c0.2,0.2,0.2,0.5,0,0.7c0,0,0,0,0,0c-0.8,0.8-1.9,1.9-0.9,3.9s2,5.1-0.6,7.9
	c-1.3,1.3-3,1.9-4.8,1.8c-1-0.1-1.9,0.2-2.7,0.8C10.3,18.4,10.1,18.5,10,18.5z"/>
<path fill="#B2B2B2" d="M16,1l3,2.5c-1.4,1-1.9,3-1,4.5c1.2,2.4,1.7,5-0.5,7.3c-1.2,1.2-2.8,1.8-4.5,1.7c-1.1-0.1-2.2,0.3-3,1
	c-0.8-0.7-1.9-1.1-3-1c-1.7,0.1-3.3-0.5-4.5-1.7C0.3,13,0.8,10.4,2,8S1.8,4.3,1,3.5L4,1c0.7,0.9,1.8,1.5,3,1.5C8.2,2.4,9.3,1.9,10,1
	c0.7,0.9,1.8,1.5,3,1.5C14.2,2.5,15.3,1.9,16,1 M16,0c-0.3,0-0.6,0.1-0.8,0.4C14.7,1,13.9,1.5,13,1.5c-0.9,0-1.7-0.5-2.2-1.1
	c-0.4-0.4-1-0.5-1.4-0.1c0,0-0.1,0.1-0.1,0.1C8.7,1,7.9,1.4,7,1.5c-0.9,0-1.7-0.4-2.2-1.1C4.6,0.2,4.4,0,4.1,0H4
	C3.8,0,3.5,0.1,3.4,0.2l-3,2.5c-0.4,0.4-0.5,1-0.1,1.4c0,0,0,0.1,0.1,0.1l0,0C1.1,5,2,5.8,1.1,7.6C0.5,8.8-1.4,12.7,1.8,16
	c1.4,1.4,3.2,2.1,5.1,2h0c0.8-0.1,1.6,0.2,2.3,0.7c0.4,0.4,1,0.5,1.4,0.1c0,0,0.1-0.1,0.1-0.1c0.7-0.5,1.5-0.7,2.3-0.7h0.1
	c1.9,0.1,3.8-0.6,5.1-2c3.2-3.4,1.3-7.2,0.7-8.5c-0.9-1.8,0-2.6,0.8-3.3C19.9,4,20,3.8,20,3.5c0-0.3-0.1-0.6-0.3-0.8l-3-2.5
	C16.5,0.1,16.2,0,16,0L16,0z"/>
</svg>
