<?xml version="1.0" encoding="utf-8"?>
<!-- Generator: Adobe Illustrator 18.0.0, SVG Export Plug-In . SVG Version: 6.00 Build 0)  -->
<!DOCTYPE svg PUBLIC "-//W3C//DTD SVG 1.1//EN" "http://www.w3.org/Graphics/SVG/1.1/DTD/svg11.dtd">
<svg version="1.1" id="Layer_1" xmlns="http://www.w3.org/2000/svg" xmlns:xlink="http://www.w3.org/1999/xlink" x="0px" y="0px"
	 viewBox="0 0 26 20" enable-background="new 0 0 26 20" xml:space="preserve">
<title>us-highway</title>
<path fill="#FFFFFF" d="M13,18.5c-0.1,0-0.3-0.1-0.4-0.2c-0.6-0.6-3.1-0.8-4-0.8H8.3c-1.6-0.1-4.6-0.2-6.1-1.8
	c-2.6-2.8-1.6-5.8-0.6-7.9S1.5,4.7,0.7,3.9C0.6,3.8,0.5,3.7,0.5,3.5c0-0.1,0.1-0.3,0.2-0.4l3-2.5c0.2-0.2,0.5-0.2,0.7,0
	C5.5,1.5,7,2,8.5,2c1.5,0,3-0.4,4.1-1.4c0.1-0.1,0.2-0.2,0.4-0.1l0,0c0.1,0,0.3,0.1,0.4,0.1C14.5,1.6,16,2,17.5,2
	c1.5,0,3-0.4,4.1-1.4c0.2-0.2,0.5-0.2,0.7,0l3,2.5c0.2,0.2,0.2,0.5,0,0.7c0,0,0,0,0,0c-0.8,0.8-1.9,1.9-0.9,3.9s2,5.1-0.6,7.9
	c-1.5,1.6-4.5,1.7-6.1,1.8h-0.4c-1,0-3.5,0.2-4,0.8C13.3,18.4,13.1,18.5,13,18.5z"/>
<path fill="#B2B2B2" d="M22,1l3,2.5c-0.8,0.8-2.2,2.1-1,4.5s1.7,5-0.5,7.3c-1.4,1.5-4.6,1.6-6,1.7c-1.2,0.1-3.8,0.2-4.5,1
	c-0.7-0.8-3.3-0.9-4.5-1c-1.4-0.1-4.6-0.1-6-1.7C0.3,13,0.8,10.4,2,8S1.8,4.3,1,3.5L4,1c1.3,1,2.9,1.5,4.5,1.5C10.1,2.5,11.7,2,13,1
	c1.3,1,2.9,1.5,4.5,1.5C19.1,2.6,20.7,2,22,1 M22,0c-0.3,0-0.5,0.1-0.7,0.3c-1.1,0.8-2.4,1.2-3.8,1.2c-1.4,0-2.7-0.4-3.8-1.2
	C13.5,0.1,13.3,0,13,0l0,0c-0.3,0-0.5,0.1-0.7,0.3c-1.1,0.8-2.4,1.2-3.8,1.2c-1.4,0-2.7-0.4-3.8-1.2C4.3-0.1,3.8-0.1,3.4,0.2l-3,2.5
	c-0.4,0.4-0.5,1-0.1,1.4c0,0,0,0.1,0.1,0.1l0,0C1.1,5,2,5.8,1.1,7.6C0,9.8-1,13,1.8,16c1.6,1.7,4.8,1.9,6.4,2h0.4
	c2.8,0.1,3.5,0.5,3.7,0.7c0.2,0.2,0.5,0.3,0.8,0.3l0,0c0.3,0,0.6-0.1,0.8-0.3c0.2-0.2,0.9-0.5,3.7-0.7h0.4c1.7-0.1,4.8-0.2,6.4-2
	c2.8-3,1.7-6.3,0.7-8.5c-0.9-1.8,0-2.6,0.8-3.3l0,0c0.4-0.4,0.4-1,0-1.4c0,0-0.1-0.1-0.1-0.1l-3-2.5C22.4,0.1,22.2,0,22,0L22,0z"/>
<rect fill="none" width="26" height="20"/>
</svg>
