<?xml version="1.0" encoding="utf-8"?>
<!-- Generator: Adobe Illustrator 18.0.0, SVG Export Plug-In . SVG Version: 6.00 Build 0)  -->
<!DOCTYPE svg PUBLIC "-//W3C//DTD SVG 1.1//EN" "http://www.w3.org/Graphics/SVG/1.1/DTD/svg11.dtd">
<svg version="1.1" id="Layer_1" xmlns="http://www.w3.org/2000/svg" xmlns:xlink="http://www.w3.org/1999/xlink" x="0px" y="0px"
	 viewBox="0 0 32 20" enable-background="new 0 0 32 20" xml:space="preserve">
<title>us-highway-duplex</title>
<path fill="#FFFFFF" d="M16,18.5c-0.2,0-0.3-0.1-0.4-0.2c-0.4-0.5-1.5-0.8-3.3-0.8c-0.5,0-0.9,0-1.3,0h-0.8H10H9.6
	c-1.9-0.1-6-0.3-7.4-1.8c-2.6-2.8-1.6-5.8-0.6-7.9S1.5,4.7,0.7,3.9C0.6,3.8,0.5,3.7,0.5,3.5c0-0.1,0.1-0.3,0.2-0.4l3-2.5
	C3.8,0.5,3.9,0.5,4,0.5c0.1,0,0.2,0,0.2,0.1C6,1.5,8,2,10,2c2-0.1,4-0.6,5.8-1.4c0.1-0.1,0.3-0.1,0.5,0C18,1.4,20,1.9,22,2
	c2-0.1,4-0.6,5.8-1.4c0.2-0.1,0.4-0.1,0.5,0.1l3,2.5c0.2,0.2,0.2,0.5,0,0.7c0,0,0,0,0,0c-0.8,0.8-1.9,1.9-0.9,3.9s2,5.1-0.6,7.9
	c-1.5,1.5-5.5,1.7-7.4,1.8l-0.4,0h-0.2H21h-1.2c-1.9,0-3,0.3-3.4,0.8C16.3,18.5,16.2,18.5,16,18.5L16,18.5L16,18.5z"/>
<path fill="#B2B2B2" d="M28,1l3,2.5c-0.8,0.8-2.2,2.1-1,4.5s1.7,5-0.5,7.3c-1.4,1.5-6.1,1.6-7.5,1.7h-0.2c-0.5,0-1.2,0-2,0
	c-1.5,0-3.2,0.1-3.8,1c-0.6-0.9-2.2-1-3.7-1c-0.8,0-1.6,0-2.1,0H10c-1.4-0.1-6.1-0.1-7.5-1.7C0.3,13,0.8,10.4,2,8S1.8,4.3,1,3.5L4,1
	c1.9,0.9,3.9,1.5,6,1.5c2.1-0.1,4.1-0.6,6-1.5c1.9,0.9,3.9,1.4,6,1.5C24.1,2.4,26.1,1.9,28,1 M28,0c-0.2,0-0.3,0-0.5,0.1
	C25.8,1,23.9,1.4,22,1.5c-1.9-0.1-3.8-0.5-5.5-1.4c-0.3-0.1-0.6-0.1-0.9,0C13.8,1,11.9,1.4,10,1.5C8.1,1.5,6.2,1,4.5,0.1
	C4.1-0.1,3.7,0,3.4,0.2l-3,2.5c-0.4,0.4-0.5,1-0.1,1.4c0,0,0,0.1,0.1,0.1l0,0C1.1,5,2,5.8,1.1,7.6C0,9.8-1,13,1.8,16
	c1.4,1.5,4.6,1.8,7.8,2H10h0.3H11c0.4,0,0.8,0,1.3,0c2.2,0,2.8,0.4,2.9,0.6c0.2,0.3,0.5,0.4,0.9,0.4l0,0c0.3,0,0.6-0.2,0.8-0.4
	c0.1-0.1,0.6-0.6,3-0.6l1.2,0h0.8h0.3h0.4c3.2-0.1,6.4-0.5,7.8-2c2.8-3,1.7-6.3,0.7-8.5c-0.9-1.8,0-2.6,0.8-3.3l0,0
	c0.4-0.4,0.4-1,0-1.4c0,0-0.1-0.1-0.1-0.1l-3-2.5C28.5,0.1,28.2,0,28,0L28,0z"/>
<rect fill="none" width="32" height="20"/>
<rect fill="none" width="32" height="20"/>
</svg>
