<?xml version="1.0" encoding="utf-8"?>
<!-- Generator: Adobe Illustrator 18.0.0, SVG Export Plug-In . SVG Version: 6.00 Build 0)  -->
<!DOCTYPE svg PUBLIC "-//W3C//DTD SVG 1.1//EN" "http://www.w3.org/Graphics/SVG/1.1/DTD/svg11.dtd">
<svg version="1.1" id="Layer_1" xmlns="http://www.w3.org/2000/svg" xmlns:xlink="http://www.w3.org/1999/xlink" x="0px" y="0px"
	 viewBox="0 0 20 22" enable-background="new 0 0 20 22" xml:space="preserve">
<title>us-interstate</title>
<path fill="#B2B2B2" d="M17,1c1,1.1,1.7,2.5,2,4v2c0,9.3-9,12-9,12S1,16.4,1,7V5c0.2-1.5,0.9-2.9,2-4c0.7,1.2,2.1,2,3.5,2
	C8,3,9.3,2.2,10,1c0.7,1.2,2,2,3.5,2C14.9,3,16.3,2.2,17,1 M17,0h-0.1c-0.3,0-0.6,0.2-0.7,0.5C15.5,1.4,14.5,2,13.5,2
	c-1.1,0-2-0.5-2.6-1.5C10.7,0.2,10.4,0,10,0l0,0C9.6,0,9.3,0.2,9.1,0.6C8.6,1.5,7.6,2,6.5,2C5.4,2,4.4,1.5,3.8,0.5
	C3.7,0.2,3.4,0.1,3.1,0H3C2.7,0,2.5,0.1,2.3,0.3C1,1.6,0.2,3.2,0,5v2c0,10,9.6,12.9,9.7,13c0.2,0.1,0.4,0.1,0.6,0
	c0.1,0,9.7-3,9.7-12.9V5c-0.3-1.8-1.1-3.4-2.3-4.7C17.5,0.1,17.3,0,17,0L17,0z"/>
<path fill="#B2B2B2" d="M1,5c0.2-1.5,0.9-2.9,2-4c0.7,1.2,2.1,2,3.5,2C8,3,9.3,2.2,10,1c0.7,1.2,2,2,3.5,2c1.5,0,2.8-0.8,3.5-2
	c1,1.1,1.7,2.5,2,4H1z"/>
<path fill="#FFFFFF" d="M1,5v1v1c0,9.3,9,12,9,12s9-2.7,9-12V6V5H1z"/>
<rect fill="none" width="20" height="22"/>
</svg>
