<?xml version="1.0" encoding="utf-8"?>
<!-- Generator: Adobe Illustrator 18.0.0, SVG Export Plug-In . SVG Version: 6.00 Build 0)  -->
<!DOCTYPE svg PUBLIC "-//W3C//DTD SVG 1.1//EN" "http://www.w3.org/Graphics/SVG/1.1/DTD/svg11.dtd">
<svg version="1.1" id="Layer_1" xmlns="http://www.w3.org/2000/svg" xmlns:xlink="http://www.w3.org/1999/xlink" x="0px" y="0px"
	 viewBox="0 0 26 22" enable-background="new 0 0 26 22" xml:space="preserve">
<title>us-interstate</title>
<path fill="#B2B2B2" d="M23,1c1.2,1,1.9,2.4,2,4v2c0,9.3-12,12-12,12S1,16.3,1,7V5c0.1-1.6,0.8-3,2-4c1.3,1.3,3.1,2,5,2
	c1.9,0,3.7-0.7,5-2c1.3,1.3,3.1,2,5,2C19.9,3,21.7,2.3,23,1 M3,0C2.8,0,2.6,0.1,2.4,0.2C0.9,1.4,0.1,3.1,0,5v2
	c0,4.2,2.2,7.8,6.5,10.4c2,1.2,4.1,2.1,6.3,2.6H13h0.2c2.2-0.6,4.3-1.5,6.3-2.6C23.8,14.7,26,11.2,26,7V5c-0.1-1.9-0.9-3.6-2.4-4.8
	c-0.4-0.3-1-0.2-1.3,0.2C21.1,1.4,19.6,2,18,2c-1.6,0-3.1-0.6-4.3-1.7C13.6,0.1,13.3,0,13,0l0,0c-0.3,0-0.6,0.1-0.7,0.3
	C11.1,1.4,9.6,2,8,2C6.4,2,4.9,1.4,3.8,0.3C3.6,0.1,3.3,0,3,0L3,0z"/>
<path fill="#B2B2B2" d="M1,5c0.1-1.6,0.8-3,2-4c1.3,1.3,3.1,2,5,2c1.9,0,3.7-0.7,5-2c1.3,1.3,3.1,2,5,2c1.9,0,3.7-0.7,5-2
	c1.2,1,1.9,2.4,2,4H1z"/>
<path fill="#FFFFFF" d="M1,5v1v1c0,9.3,12,12,12,12s12-2.8,12-12V6V5H1z"/>
<rect fill="none" width="26" height="22"/>
</svg>
