<?xml version="1.0" encoding="utf-8"?>
<!-- Generator: Adobe Illustrator 18.0.0, SVG Export Plug-In . SVG Version: 6.00 Build 0)  -->
<!DOCTYPE svg PUBLIC "-//W3C//DTD SVG 1.1//EN" "http://www.w3.org/Graphics/SVG/1.1/DTD/svg11.dtd">
<svg version="1.1" id="Layer_1" xmlns="http://www.w3.org/2000/svg" xmlns:xlink="http://www.w3.org/1999/xlink" x="0px" y="0px"
	 viewBox="0 0 38 22" enable-background="new 0 0 38 22" xml:space="preserve">
<title>us-interstate</title>
<path fill="#B2B2B2" d="M35,1c1.2,1,2,2.4,2,4c0,0,0,1.5,0,2c0,9.3-18,12-18,12S1,16.3,1,7V5c0.1-1.6,0.8-3,2-4c0,0,2.5,2,8,2
	c6.5,0,8-2,8-2s1.5,2,8,2C32.5,3,35,1,35,1 M19,0c-0.3,0-0.6,0.1-0.8,0.4l0,0c0,0-1.5,1.6-7.2,1.6C6,2,3.6,0.2,3.6,0.2
	C3.4,0.1,3.2,0,3,0C2.8,0,2.6,0.1,2.4,0.2C0.9,1.3,0.1,3.1,0,5v2c0,10.1,18.1,12.8,18.9,13h0.3C19.9,19.8,38,17,38,7
	c0-1.1,0-1.7,0-2l0,0c0-1.9-0.9-3.7-2.4-4.8c-0.4-0.3-0.8-0.3-1.2,0C34.4,0.2,32,2,27,2c-5.7,0-7.2-1.6-7.2-1.6
	C19.6,0.1,19.3,0,19,0L19,0z"/>
<path fill="#B2B2B2" d="M1,5c0.1-1.6,0.8-3,2-4c0,0,2.5,2,8,2c6.5,0,8-2,8-2s1.5,2,8,2c5.5,0,8-2,8-2c1.2,1,1.9,2.4,2,4H1z"/>
<path fill="#FFFFFF" d="M1,5v1v1c0,9.3,18,12,18,12s18-2.8,18-12V6V5H1z"/>
<rect fill="none" width="38" height="22"/>
</svg>
