<?xml version="1.0" encoding="utf-8"?>
<!-- Generator: Adobe Illustrator 18.0.0, SVG Export Plug-In . SVG Version: 6.00 Build 0)  -->
<!DOCTYPE svg PUBLIC "-//W3C//DTD SVG 1.1//EN" "http://www.w3.org/Graphics/SVG/1.1/DTD/svg11.dtd">
<svg version="1.1" id="Layer_1" xmlns="http://www.w3.org/2000/svg" xmlns:xlink="http://www.w3.org/1999/xlink" x="0px" y="0px"
	 viewBox="0 0 32 22" enable-background="new 0 0 32 22" xml:space="preserve">
<title>us-interstate-duplex-4</title>
<path fill="#B2B2B2" d="M1,5c0.1-1.6,0.8-3,2-4c1.5,1.3,3.5,2,5.5,2c2.6,0,5.2-0.7,7.5-2c2.3,1.3,4.9,2,7.5,2c2,0,4-0.7,5.5-2
	c1.2,1,1.9,2.4,2,4H1z"/>
<path fill="#FFFFFF" d="M1,5v1v1c0,9.3,15,12,15,12s15-2.8,15-12V6V5H1z"/>
<path fill="#B2B2B2" d="M29,1c1.2,1,1.9,2.4,2,4v2c-0.2,9.3-15.3,12-15.3,12S1,16.3,1,7V5c0.1-1.6,0.8-3,2-4c1.5,1.3,3.5,2,5.5,2
	c2.6,0,5.2-0.7,7.5-2c2.3,1.3,4.9,2,7.5,2C25.5,3,27.5,2.3,29,1 M29,0c-0.3,0-0.5,0.1-0.7,0.3C27,1.4,25.3,2,23.5,2
	c-2.5,0-4.9-0.6-7-1.8c-0.3-0.2-0.8-0.2-1.1,0C13.3,1.4,10.9,2,8.5,2C6.7,2,5,1.4,3.7,0.3C3.4,0,2.8-0.1,2.4,0.2
	C0.9,1.4,0.1,3.1,0,5v2c0,4.2,2.7,7.8,7.9,10.4c2.4,1.2,5,2.1,7.6,2.6h0.4c2.7-0.5,5.3-1.4,7.8-2.6c5.3-2.6,8.2-6.2,8.3-10.4V5
	c-0.1-1.9-0.9-3.6-2.4-4.8C29.4,0.1,29.2,0,29,0L29,0z"/>
<rect fill="none" width="32" height="22"/>
</svg>
