<?xml version="1.0" encoding="utf-8"?>
<!-- Generator: Adobe Illustrator 18.0.0, SVG Export Plug-In . SVG Version: 6.00 Build 0)  -->
<!DOCTYPE svg PUBLIC "-//W3C//DTD SVG 1.1//EN" "http://www.w3.org/Graphics/SVG/1.1/DTD/svg11.dtd">
<svg version="1.1" id="Layer_1" xmlns="http://www.w3.org/2000/svg" xmlns:xlink="http://www.w3.org/1999/xlink" x="0px" y="0px"
	 viewBox="0 0 26 20" enable-background="new 0 0 26 20" xml:space="preserve">
<title>us-state</title>
<path fill="#FFFFFF" d="M13,19.5c-6.9,0-12.5-4.3-12.5-9.5S6.1,0.5,13,0.5S25.5,4.8,25.5,10S19.9,19.5,13,19.5z"/>
<path fill="#B2B2B2" d="M13,1c6.6,0,12,4,12,9s-5.4,9-12,9S1,15,1,10S6.4,1,13,1 M13,0C5.8,0,0,4.5,0,10s5.8,10,13,10s13-4.5,13-10
	S20.2,0,13,0L13,0z"/>
</svg>
