<?xml version="1.0" encoding="utf-8"?>
<!-- Generator: Adobe Illustrator 18.0.0, SVG Export Plug-In . SVG Version: 6.00 Build 0)  -->
<!DOCTYPE svg PUBLIC "-//W3C//DTD SVG 1.1//EN" "http://www.w3.org/Graphics/SVG/1.1/DTD/svg11.dtd">
<svg version="1.1" id="Layer_1" xmlns="http://www.w3.org/2000/svg" xmlns:xlink="http://www.w3.org/1999/xlink" x="0px" y="0px"
	 viewBox="0 0 32 20" enable-background="new 0 0 32 20" xml:space="preserve">
<title>us-state</title>
<path fill="#FFFFFF" d="M16,19.5c-8.5,0-15.5-4.3-15.5-9.5s7-9.5,15.5-9.5S31.5,4.8,31.5,10S24.6,19.5,16,19.5z"/>
<path fill="#B2B2B2" d="M16,1c8.3,0,15,4,15,9s-6.7,9-15,9S1,15,1,10S7.7,1,16,1 M16,0C7,0,0,4.4,0,10s7,10,16,10s16-4.4,16-10
	S25,0,16,0L16,0z"/>
</svg>
